<svg xmlns="http://www.w3.org/2000/svg" viewBox="0 0 47.25 47.25"><defs><style>.cls-1{fill:#3525e2;stroke:#3525e2;stroke-miterlimit:10;stroke-width:0.25px;}.cls-2{opacity:0.51;}.cls-3{fill:#062066;}.cls-4{fill:#fff;}.cls-5{opacity:0.5;}</style></defs><title>Livello 1 (2)</title><g id="Livello_2" data-name="Livello 2"><g id="Livello_1-2" data-name="Livello 1"><circle class="cls-1" cx="23.63" cy="23.63" r="23.5"/><g class="cls-2"><path class="cls-3" d="M19,36.5a2.63,2.63,0,1,0,2.63,2.63A2.62,2.62,0,0,0,19,36.5Z"/></g><path class="cls-4" d="M18,35.5a2.63,2.63,0,1,0,2.63,2.63A2.62,2.62,0,0,0,18,35.5Z"/><g class="cls-2"><path class="cls-3" d="M32.13,36.5a2.63,2.63,0,1,0,2.62,2.63A2.62,2.62,0,0,0,32.13,36.5Z"/></g><path class="cls-4" d="M31.13,35.5a2.63,2.63,0,1,0,2.62,2.63A2.62,2.62,0,0,0,31.13,35.5Z"/><g class="cls-2"><path class="cls-3" d="M30.23,29.94a2.59,2.59,0,0,0,2.29-1.36l4.44-8a1.33,1.33,0,0,0-.51-1.79,1.31,1.31,0,0,0-1.77.51l-4.45,8H21L15.77,16.25a1.3,1.3,0,0,0-1.18-.75H12.44a1.31,1.31,0,0,0,0,2.62h1.31l4.73,10-1.78,3.2a2.64,2.64,0,0,0,2.3,3.9H33.44a1.32,1.32,0,0,0,0-2.63H19l1.45-2.62Z"/></g><path class="cls-4" d="M29.23,28.94a2.59,2.59,0,0,0,2.29-1.36l4.44-8a1.33,1.33,0,0,0-.51-1.79,1.31,1.31,0,0,0-1.77.51l-4.45,8H20L14.77,15.25a1.3,1.3,0,0,0-1.18-.75H11.44a1.31,1.31,0,1,0,0,2.62h1.31l4.73,10-1.78,3.2a2.64,2.64,0,0,0,2.3,3.9H32.44a1.32,1.32,0,0,0,0-2.63H18l1.45-2.62Z"/><g class="cls-5"><path class="cls-3" d="M21.81,23.37h7.51a1.5,1.5,0,0,0,1.5-1.5V8.37a1.51,1.51,0,0,0-1.5-1.5H21.81a1.51,1.51,0,0,0-1.5,1.5v13.5A1.5,1.5,0,0,0,21.81,23.37Zm0-13.5h7.51v10.5H21.81Z"/></g><path class="cls-4" d="M20.81,22.37h7.51a1.5,1.5,0,0,0,1.5-1.5V7.37a1.51,1.51,0,0,0-1.5-1.5H20.81a1.51,1.51,0,0,0-1.5,1.5v13.5A1.5,1.5,0,0,0,20.81,22.37Zm0-13.5h7.51v10.5H20.81Z"/><g class="cls-2"><path class="cls-3" d="M27.53,14.84H26.22V13.53a.66.66,0,1,0-1.31,0v1.31H23.6a.67.67,0,0,0-.66.66.66.66,0,0,0,.66.65h1.31v1.32a.66.66,0,0,0,1.31,0V16.15h1.31a.65.65,0,0,0,.66-.65A.66.66,0,0,0,27.53,14.84Z"/></g><path class="cls-4" d="M26.53,13.84H25.22V12.53a.66.66,0,1,0-1.31,0v1.31H22.6a.67.67,0,0,0-.66.66.66.66,0,0,0,.66.65h1.31v1.32a.66.66,0,0,0,1.31,0V15.15h1.31a.65.65,0,0,0,.66-.65A.66.66,0,0,0,26.53,13.84Z"/></g></g></svg>